<svg version="1.1" id="Layer_1" xmlns="http://www.w3.org/2000/svg" xmlns:xlink="http://www.w3.org/1999/xlink" x="0px" y="0px"
	 width="100%" viewBox="0 0 800 800" enable-background="new 0 0 800 800" xml:space="preserve">
<path fill="#4C6971" opacity="1.000000" stroke="none" 
	d="
M536.000000,801.000000 
	C357.333344,801.000000 179.166672,801.000000 1.000000,801.000000 
	C1.000000,534.333313 1.000000,267.666656 1.000000,1.000000 
	C267.666656,1.000000 534.333313,1.000000 801.000000,1.000000 
	C801.000000,267.666656 801.000000,534.333313 801.000000,801.000000 
	C712.833313,801.000000 624.666687,801.000000 536.000000,801.000000 
M373.593506,303.731384 
	C374.663361,303.322754 375.808502,303.045959 376.791321,302.484863 
	C385.492401,297.517517 394.178497,292.523346 402.835693,287.479889 
	C404.930573,286.259460 406.902191,284.827362 408.973877,283.464050 
	C408.485535,282.236633 408.264679,281.236023 407.740753,280.433228 
	C402.043060,271.702332 396.369019,262.953094 390.426392,254.390732 
	C389.966217,253.727661 387.261322,253.938446 386.054291,254.587860 
	C377.687866,259.089203 369.454498,263.837067 361.151764,268.457916 
	C357.220093,270.646057 352.673737,272.469879 356.734192,278.261200 
	C356.839508,278.411407 356.255798,279.044678 355.346649,279.198547 
	C349.675171,279.282074 348.647919,280.520599 348.904358,286.557312 
	C348.949768,287.625824 348.457275,288.753906 348.064484,289.798523 
	C345.026184,297.878906 348.451202,303.132263 353.329132,308.512665 
	C354.132904,309.399261 356.158844,309.997406 357.274109,309.642395 
	C362.553864,307.961823 367.713654,305.904266 373.593506,303.731384 
M421.316345,249.326447 
	C418.727936,250.213181 416.179047,251.672882 413.542023,251.854752 
	C409.406036,252.139999 407.498260,254.708939 405.801788,257.759796 
	C404.800598,259.560333 404.068085,261.510284 402.641876,264.656982 
	C405.493195,263.566132 407.475250,263.078156 409.175323,262.100067 
	C412.519409,260.176056 415.574097,257.713379 419.011139,256.000610 
	C420.936035,255.041397 423.387115,255.138046 426.113342,255.315842 
	C428.861786,258.881866 431.610260,262.447906 434.584595,266.307037 
	C436.207489,265.296143 437.566376,264.422821 438.950684,263.591858 
	C446.150970,259.269775 453.530945,255.216736 460.496674,250.545639 
	C464.607941,247.788696 466.863464,249.458008 469.906158,252.169952 
	C478.283966,259.637085 486.303894,267.798035 495.670563,273.805420 
	C518.415588,288.393036 543.811340,292.603546 570.147583,287.622864 
	C597.195679,282.507629 619.289124,268.267487 635.311707,245.854721 
	C653.573853,220.309143 659.936646,191.805786 652.943787,160.865936 
	C647.504028,136.797852 635.157898,116.655930 615.695190,101.614395 
	C592.199829,83.456284 565.365051,75.984001 535.645447,79.984436 
	C513.687744,82.940071 494.533966,91.915077 478.458984,107.111572 
	C461.377808,123.259216 450.743530,142.767853 446.628357,166.212189 
	C444.164825,180.247025 445.160675,193.849777 447.459717,207.539200 
	C448.801117,215.526657 449.122070,215.307190 442.179230,219.511002 
	C433.334778,224.866226 424.656067,230.495102 416.221588,235.807175 
	C418.262451,240.478149 420.124451,244.739624 421.316345,249.326447 
M501.061615,715.469116 
	C514.594604,723.579285 528.928894,729.874878 544.162292,733.970642 
	C562.896179,739.007751 581.878906,740.046875 601.231567,738.155090 
	C619.400330,736.378967 636.434143,731.154419 652.777283,723.490112 
	C675.083374,713.029541 693.513855,697.484741 708.865967,678.395752 
	C720.121582,664.400391 728.914917,648.833252 734.510071,631.711304 
	C741.666016,609.812866 744.792236,587.446960 742.118042,564.305725 
	C740.148376,547.261353 736.092529,530.901917 729.021912,515.317200 
	C722.562195,501.079285 714.067261,488.177338 703.906555,476.215546 
	C690.827698,460.818451 675.251770,448.534821 657.457947,439.522675 
	C629.940430,425.585663 600.678223,419.570221 569.615601,422.838959 
	C556.584167,424.210236 543.896179,426.250275 531.520874,430.683319 
	C499.464233,442.166504 473.968323,462.110840 454.183960,489.628693 
	C451.345490,493.576721 448.419464,497.461884 445.618286,501.261719 
	C421.239624,488.092133 397.672729,475.365845 374.110596,462.630646 
	C361.599243,455.868347 349.109100,449.066681 336.579620,442.338165 
	C333.749054,440.818085 332.782654,439.152252 333.477203,435.576050 
	C335.359619,425.883850 337.234283,416.091278 337.803070,406.262756 
	C339.118835,383.526733 333.887848,361.962189 324.097961,341.493622 
	C322.264526,337.660248 323.109985,335.539032 326.807251,333.508453 
	C332.881622,330.172394 338.686707,326.341125 344.562134,322.649933 
	C347.045929,321.089478 347.738007,319.210907 345.969574,316.389313 
	C343.432281,312.341003 341.304565,308.035156 339.021576,303.828613 
	C336.157013,298.550568 333.312225,293.261810 330.437805,287.938507 
	C325.993439,291.051331 322.419800,293.670074 318.727173,296.108643 
	C314.866302,298.658295 310.851501,300.974030 306.974640,303.500488 
	C300.656555,307.617798 300.606506,307.734161 295.004333,302.480225 
	C267.482361,276.669220 234.376205,265.685516 197.205276,266.270752 
	C188.394714,266.409454 179.469528,268.085602 170.852859,270.131683 
	C140.249481,277.398743 115.476479,294.037750 96.594795,319.010468 
	C81.815697,338.557129 72.141663,360.314545 69.837646,385.184296 
	C68.199570,402.865906 68.739471,420.192841 73.705681,437.274963 
	C81.762901,464.989105 97.053253,488.083466 119.652443,505.864288 
	C149.855347,529.627686 184.087463,539.855347 222.571899,534.046570 
	C251.270599,529.714722 276.137726,517.702515 296.446442,496.871338 
	C300.146637,493.075989 302.988892,492.597137 307.561005,495.110291 
	C335.096161,510.245758 362.776733,525.116516 390.388306,540.113281 
	C401.138031,545.951843 411.899872,551.775330 422.491302,557.891174 
	C424.246643,558.904785 426.318665,561.423035 426.268616,563.190063 
	C425.808441,579.435730 425.535095,595.574829 428.877686,611.674988 
	C432.540314,629.316711 438.750641,645.901489 447.943298,661.288940 
	C461.125977,683.355225 478.962006,701.033691 501.061615,715.469116 
M403.206421,248.387436 
	C402.550964,249.763000 401.895538,251.138580 400.823730,253.387955 
	C405.909882,250.947937 409.848846,249.058258 414.011597,247.061218 
	C409.759521,241.353592 406.970306,246.446396 403.206421,248.387436 
z"/>
<path fill="#000000" opacity="1.000000" stroke="none" 
	d="
M500.746429,715.280945 
	C478.962006,701.033691 461.125977,683.355225 447.943298,661.288940 
	C438.750641,645.901489 432.540314,629.316711 428.877686,611.674988 
	C425.535095,595.574829 425.808441,579.435730 426.268616,563.190063 
	C426.318665,561.423035 424.246643,558.904785 422.491302,557.891174 
	C411.899872,551.775330 401.138031,545.951843 390.388306,540.113281 
	C362.776733,525.116516 335.096161,510.245758 307.561005,495.110291 
	C302.988892,492.597137 300.146637,493.075989 296.446442,496.871338 
	C276.137726,517.702515 251.270599,529.714722 222.571899,534.046570 
	C184.087463,539.855347 149.855347,529.627686 119.652443,505.864288 
	C97.053253,488.083466 81.762901,464.989105 73.705681,437.274963 
	C68.739471,420.192841 68.199570,402.865906 69.837646,385.184296 
	C72.141663,360.314545 81.815697,338.557129 96.594795,319.010468 
	C115.476479,294.037750 140.249481,277.398743 170.852859,270.131683 
	C179.469528,268.085602 188.394714,266.409454 197.205276,266.270752 
	C234.376205,265.685516 267.482361,276.669220 295.004333,302.480225 
	C300.606506,307.734161 300.656555,307.617798 306.974640,303.500488 
	C310.851501,300.974030 314.866302,298.658295 318.727173,296.108643 
	C322.419800,293.670074 325.993439,291.051331 330.437805,287.938507 
	C333.312225,293.261810 336.157013,298.550568 339.021576,303.828613 
	C341.304565,308.035156 343.432281,312.341003 345.969574,316.389313 
	C347.738007,319.210907 347.045929,321.089478 344.562134,322.649933 
	C338.686707,326.341125 332.881622,330.172394 326.807251,333.508453 
	C323.109985,335.539032 322.264526,337.660248 324.097961,341.493622 
	C333.887848,361.962189 339.118835,383.526733 337.803070,406.262756 
	C337.234283,416.091278 335.359619,425.883850 333.477203,435.576050 
	C332.782654,439.152252 333.749054,440.818085 336.579620,442.338165 
	C349.109100,449.066681 361.599243,455.868347 374.110596,462.630646 
	C397.672729,475.365845 421.239624,488.092133 445.618286,501.261719 
	C448.419464,497.461884 451.345490,493.576721 454.183960,489.628693 
	C473.968323,462.110840 499.464233,442.166504 531.520874,430.683319 
	C543.896179,426.250275 556.584167,424.210236 569.615601,422.838959 
	C600.678223,419.570221 629.940430,425.585663 657.457947,439.522675 
	C675.251770,448.534821 690.827698,460.818451 703.906555,476.215546 
	C714.067261,488.177338 722.562195,501.079285 729.021912,515.317200 
	C736.092529,530.901917 740.148376,547.261353 742.118042,564.305725 
	C744.792236,587.446960 741.666016,609.812866 734.510071,631.711304 
	C728.914917,648.833252 720.121582,664.400391 708.865967,678.395752 
	C693.513855,697.484741 675.083374,713.029541 652.777283,723.490112 
	C636.434143,731.154419 619.400330,736.378967 601.231567,738.155090 
	C581.878906,740.046875 562.896179,739.007751 544.162292,733.970642 
	C528.928894,729.874878 514.594604,723.579285 500.746429,715.280945 
M511.828857,535.335632 
	C503.938171,546.982117 500.052979,560.095520 499.122650,573.891907 
	C497.734924,594.471130 502.687500,613.537598 515.088684,630.336365 
	C536.682495,659.587769 569.900208,671.802246 604.294739,663.589600 
	C623.895691,658.909180 640.442749,648.186218 652.586426,631.723328 
	C666.172058,613.305664 672.151001,592.727661 669.063354,569.763000 
	C666.281799,549.075378 657.733887,531.417908 642.036743,517.445435 
	C618.322388,496.336548 590.830994,490.327484 560.512268,498.380524 
	C539.752380,503.894592 523.647949,516.449890 511.828857,535.335632 
M226.680130,465.196472 
	C261.478180,452.218719 280.944763,414.884888 268.160461,378.312653 
	C257.941437,349.078949 233.716248,333.082458 204.768845,332.141479 
	C182.477142,331.416809 164.268799,340.441437 149.712311,357.537659 
	C135.698669,373.996307 132.069687,393.392914 135.612274,413.419495 
	C139.723831,436.662537 153.564926,453.985840 175.544678,463.801453 
	C192.029053,471.162933 208.946976,471.497620 226.680130,465.196472 
z"/>
<path fill="#000000" opacity="1.000000" stroke="none" 
	d="
M421.986420,249.001099 
	C420.124451,244.739624 418.262451,240.478149 416.221588,235.807175 
	C424.656067,230.495102 433.334778,224.866226 442.179230,219.511002 
	C449.122070,215.307190 448.801117,215.526657 447.459717,207.539200 
	C445.160675,193.849777 444.164825,180.247025 446.628357,166.212189 
	C450.743530,142.767853 461.377808,123.259216 478.458984,107.111572 
	C494.533966,91.915077 513.687744,82.940071 535.645447,79.984436 
	C565.365051,75.984001 592.199829,83.456284 615.695190,101.614395 
	C635.157898,116.655930 647.504028,136.797852 652.943787,160.865936 
	C659.936646,191.805786 653.573853,220.309143 635.311707,245.854721 
	C619.289124,268.267487 597.195679,282.507629 570.147583,287.622864 
	C543.811340,292.603546 518.415588,288.393036 495.670563,273.805420 
	C486.303894,267.798035 478.283966,259.637085 469.906158,252.169952 
	C466.863464,249.458008 464.607941,247.788696 460.496674,250.545639 
	C453.530945,255.216736 446.150970,259.269775 438.950684,263.591858 
	C437.566376,264.422821 436.207489,265.296143 434.584595,266.307037 
	C431.610260,262.447906 428.861786,258.881866 425.723145,254.761017 
	C424.217438,252.471146 423.101929,250.736115 421.986420,249.001099 
M501.811127,208.598495 
	C506.398407,214.421555 510.388184,220.868912 515.690979,225.944382 
	C528.804016,238.495239 545.251892,240.281815 562.105286,237.265213 
	C574.057495,235.125854 583.404297,227.987869 591.910278,219.020447 
	C606.574707,203.560410 607.751343,173.768326 597.595703,156.871414 
	C588.689148,142.052673 575.973083,133.487549 558.842468,130.690018 
	C537.382324,127.185463 518.072754,135.361389 505.888947,152.522919 
	C493.596130,169.838013 492.820282,188.664444 501.811127,208.598495 
z"/>
<path fill="#010101" opacity="1.000000" stroke="none" 
	d="
M355.993408,279.452637 
	C356.255798,279.044678 356.839508,278.411407 356.734192,278.261200 
	C352.673737,272.469879 357.220093,270.646057 361.151764,268.457916 
	C369.454498,263.837067 377.687866,259.089203 386.054291,254.587860 
	C387.261322,253.938446 389.966217,253.727661 390.426392,254.390732 
	C396.369019,262.953094 402.043060,271.702332 407.740753,280.433228 
	C408.264679,281.236023 408.485535,282.236633 408.973877,283.464050 
	C406.902191,284.827362 404.930573,286.259460 402.835693,287.479889 
	C394.178497,292.523346 385.492401,297.517517 376.791321,302.484863 
	C375.808502,303.045959 374.663361,303.322754 373.229858,303.502930 
	C367.887604,294.876526 363.979889,285.720093 355.993408,279.452637 
z"/>
<path fill="#F7F7F7" opacity="1.000000" stroke="none" 
	d="
M355.670044,279.325592 
	C363.979889,285.720093 367.887604,294.876526 372.891174,303.627747 
	C367.713654,305.904266 362.553864,307.961823 357.274109,309.642395 
	C356.158844,309.997406 354.132904,309.399261 353.329132,308.512665 
	C348.451202,303.132263 345.026184,297.878906 348.064484,289.798523 
	C348.457275,288.753906 348.949768,287.625824 348.904358,286.557312 
	C348.647919,280.520599 349.675171,279.282074 355.670044,279.325592 
z"/>
<path fill="#F0F0F0" opacity="1.000000" stroke="none" 
	d="
M421.651367,249.163757 
	C423.101929,250.736115 424.217438,252.471146 425.467010,254.482574 
	C423.387115,255.138046 420.936035,255.041397 419.011139,256.000610 
	C415.574097,257.713379 412.519409,260.176056 409.175323,262.100067 
	C407.475250,263.078156 405.493195,263.566132 402.641876,264.656982 
	C404.068085,261.510284 404.800598,259.560333 405.801788,257.759796 
	C407.498260,254.708939 409.406036,252.139999 413.542023,251.854752 
	C416.179047,251.672882 418.727936,250.213181 421.651367,249.163757 
z"/>
<path fill="#101010" opacity="1.000000" stroke="none" 
	d="
M403.507690,248.225250 
	C406.970306,246.446396 409.759521,241.353592 414.011597,247.061218 
	C409.848846,249.058258 405.909882,250.947937 400.823730,253.387955 
	C401.895538,251.138580 402.550964,249.763000 403.507690,248.225250 
z"/>
<path fill="#4C6971" opacity="1.000000" stroke="none" 
	d="
M511.951904,534.991943 
	C523.647949,516.449890 539.752380,503.894592 560.512268,498.380524 
	C590.830994,490.327484 618.322388,496.336548 642.036743,517.445435 
	C657.733887,531.417908 666.281799,549.075378 669.063354,569.763000 
	C672.151001,592.727661 666.172058,613.305664 652.586426,631.723328 
	C640.442749,648.186218 623.895691,658.909180 604.294739,663.589600 
	C569.900208,671.802246 536.682495,659.587769 515.088684,630.336365 
	C502.687500,613.537598 497.734924,594.471130 499.122650,573.891907 
	C500.052979,560.095520 503.938171,546.982117 511.951904,534.991943 
z"/>
<path fill="#4C6971" opacity="1.000000" stroke="none" 
	d="
M226.336426,465.387634 
	C208.946976,471.497620 192.029053,471.162933 175.544678,463.801453 
	C153.564926,453.985840 139.723831,436.662537 135.612274,413.419495 
	C132.069687,393.392914 135.698669,373.996307 149.712311,357.537659 
	C164.268799,340.441437 182.477142,331.416809 204.768845,332.141479 
	C233.716248,333.082458 257.941437,349.078949 268.160461,378.312653 
	C280.944763,414.884888 261.478180,452.218719 226.336426,465.387634 
z"/>
<path fill="#4C6971" opacity="1.000000" stroke="none" 
	d="
M501.606445,208.280228 
	C492.820282,188.664444 493.596130,169.838013 505.888947,152.522919 
	C518.072754,135.361389 537.382324,127.185463 558.842468,130.690018 
	C575.973083,133.487549 588.689148,142.052673 597.595703,156.871414 
	C607.751343,173.768326 606.574707,203.560410 591.910278,219.020447 
	C583.404297,227.987869 574.057495,235.125854 562.105286,237.265213 
	C545.251892,240.281815 528.804016,238.495239 515.690979,225.944382 
	C510.388184,220.868912 506.398407,214.421555 501.606445,208.280228 
z"/>
</svg>